<svg width="99" height="54" viewBox="0 0 99 54" fill="none" xmlns="http://www.w3.org/2000/svg">
<path d="M57.9746 0C58.3825 0.0758445 58.7958 0.119754 59.1909 0.232412C61.2624 0.821427 62.9333 1.95244 64.0735 3.77315C64.4431 4.3538 64.6382 5.02461 64.6363 5.70874C64.6345 8.91638 64.6345 12.1246 64.6363 15.3334V15.545H55.6675V15.29C55.6675 13.3162 55.6666 11.3427 55.6648 9.36923C55.668 9.12556 55.6476 8.88214 55.6036 8.64228C55.4223 7.73791 54.6415 7.12761 53.6744 7.12672C50.9786 7.12465 48.2823 7.12465 45.5856 7.12672C44.9965 7.12672 44.4073 7.10765 43.8182 7.13426C43.4958 7.14826 43.1769 7.20572 42.8706 7.30502C42.1858 7.53078 41.8342 8.03818 41.749 8.72699C41.7196 8.96172 41.7045 9.19795 41.7037 9.43443C41.7006 11.3786 41.7006 13.3226 41.7037 15.2665V15.5455H32.738V15.2705C32.738 12.203 32.7579 9.13505 32.7275 6.06756C32.7162 4.9463 33.0516 3.97629 33.7531 3.11495C35.0959 1.46367 36.817 0.427124 38.9497 0.0651996C39.0974 0.0403617 39.2461 0.0217332 39.3943 0H57.9746Z" fill="white"/>
<path d="M31.0909 0C28.9129 3.54601 26.7346 7.09216 24.5561 10.6385C23.5871 12.2168 22.6187 13.7958 21.651 15.3753C21.5769 15.4963 21.5024 15.5459 21.3556 15.5455C17.4526 15.541 13.5496 15.541 9.64661 15.5455C9.51355 15.5455 9.43594 15.5078 9.36542 15.3922C6.27466 10.3192 3.18153 5.24753 0.0860433 0.177212C0.0543627 0.119642 0.0256442 0.0604943 0 0L9.89055 0L15.5282 9.07235C15.5907 8.9771 15.6319 8.91729 15.6705 8.85571C17.0836 6.58149 18.4962 4.30728 19.9084 2.03306C20.328 1.35833 20.7404 0.678278 21.156 0H31.0909Z" fill="white"/>
<path d="M76.9091 0C76.9091 1.10852 76.9077 2.21704 76.905 3.32556C76.905 7.30057 76.905 11.2765 76.905 15.2532V15.5455H67.9118V15.2532C67.9118 10.1984 67.9118 5.14354 67.9118 0.0886817C67.9118 0.0589733 67.9118 0.0297084 67.9091 0H76.9091Z" fill="white"/>
<path d="M99 0C99 0.0736121 98.9945 0.147668 98.9945 0.221723V15.5455H90V0H99Z" fill="white"/>
<path d="M67.9095 27.8182H99V29.4359C98.9293 29.4401 98.8523 29.4485 98.775 29.449C88.5795 29.449 78.3838 29.4509 68.1881 29.4546C67.9851 29.4546 67.9082 29.3859 67.9091 29.1841C67.9109 28.7345 67.9095 28.285 67.9095 27.8182Z" fill="white"/>
<path d="M64.5595 29.4546H33.5455V27.8182H64.6364C64.6103 28.3695 64.5851 28.9071 64.5595 29.4546Z" fill="white"/>
<path d="M99 30.2727V31.8894C98.9177 31.8948 98.8403 31.9043 98.7628 31.9043C89.1498 31.9043 79.5368 31.9059 69.9237 31.9091C69.7719 31.9091 69.6557 31.8584 69.5602 31.7C69.2839 31.2449 69.0049 30.7927 68.7273 30.3394C68.7418 30.3168 68.7567 30.2947 68.7713 30.2727H99Z" fill="white"/>
<path d="M63.8182 30.2751C63.5348 30.871 63.2334 31.3972 62.8587 31.837C62.7984 31.9073 62.6787 31.9031 62.5829 31.9037C59.757 31.9065 56.9309 31.9065 54.1047 31.9037C47.6869 31.9037 41.2702 31.9055 34.8545 31.9091C34.6665 31.9091 34.523 31.856 34.4047 31.6606C34.1348 31.216 33.859 30.778 33.5455 30.2727L63.8182 30.2751Z" fill="white"/>
<path d="M9.81818 15.5454H21.2727C21.2325 15.6221 21.2031 15.6848 21.1672 15.744C20.7511 16.4352 20.3302 17.1238 19.9197 17.8185C19.8436 17.9478 19.7588 17.9978 19.6105 17.9973C16.8938 17.9938 14.177 17.9947 11.4601 18C11.281 18 11.2399 17.8983 11.1686 17.7808C10.7728 17.1194 10.3688 16.4632 9.96827 15.8049C9.92372 15.7295 9.88133 15.6545 9.81818 15.5454Z" fill="white"/>
<path d="M32.7273 17.9867V15.5454H41.7141C41.7186 15.6189 41.7268 15.696 41.7273 15.773C41.7273 16.4188 41.7273 17.0645 41.7273 17.7103C41.7273 17.9991 41.7273 18 41.4336 18H34.3355C33.8877 18 33.4403 18 32.9932 18C32.9112 17.9986 32.8297 17.9916 32.7273 17.9867Z" fill="white"/>
<path d="M64.6364 15.5458V17.9776C64.5404 17.9837 64.4544 17.9947 64.3634 17.9947C61.5517 17.9947 58.7403 17.9964 55.9293 18C55.7059 18 55.6304 17.9526 55.6367 17.7226C55.6549 17.0798 55.6431 16.4366 55.6431 15.792V15.5454L64.6364 15.5458Z" fill="white"/>
<path d="M67.9091 18V15.5454H76.9091V18H67.9091Z" fill="white"/>
<path d="M98.9831 15.5454C98.9872 15.6149 98.9945 15.6774 98.9949 15.743C98.9949 16.4174 98.9885 17.0914 98.9999 17.7668C99.0026 17.9537 98.9402 18.0008 98.7548 17.9999C97.1997 17.9938 95.644 17.9964 94.0884 17.9964H90V15.5454H98.9831Z" fill="white"/>
<path d="M11.4546 18.8182H19.6364V21.2728H11.4546V18.8182Z" fill="white"/>
<path d="M32.7273 21.2728V18.8182H41.7273V21.2728H32.7273Z" fill="white"/>
<path d="M64.6364 18.8182V21.2728H55.6364V18.8182H64.6364Z" fill="white"/>
<path d="M76.9091 21.2728H67.9091V18.8182H76.9091V21.2728Z" fill="white"/>
<path d="M99 18.8182V21.2728H90V18.8182H99Z" fill="white"/>
<path d="M19.6364 21.2727V23.7273H11.4546V21.2727H19.6364Z" fill="white"/>
<path d="M41.7273 21.2727V23.7273H32.7273V21.2727H41.7273Z" fill="white"/>
<path d="M90 23.7273V21.2727H99V23.7273H90Z" fill="white"/>
<path d="M67.9091 23.7273V21.2727H76.9091V23.7273H67.9091Z" fill="white"/>
<path d="M64.6364 23.7273H55.6364V21.2727H64.6364V23.7273Z" fill="white"/>
<path d="M55.3295 24.5454H64.6364V26.1818H54.8182C55.2235 25.6889 55.3474 25.1444 55.3295 24.5454Z" fill="white"/>
<path d="M42.0309 24.5454C42.0427 25.1353 42.0879 25.6949 42.5454 26.1818H32.7273V24.5454H42.0309Z" fill="white"/>
<path d="M76.9091 26.1818H67.9091V24.5454H76.4338C76.4472 25.1152 76.4813 25.6875 76.9091 26.1818Z" fill="white"/>
<path d="M11.4554 24.5454H19.636C19.636 25.0598 19.6385 25.5632 19.631 26.0662C19.631 26.1031 19.5658 26.1512 19.5204 26.1715C19.475 26.1917 19.4259 26.1759 19.3776 26.1759H11.7249C11.455 26.1759 11.455 26.1759 11.4546 25.9141L11.4554 24.5454Z" fill="white"/>
<path d="M99 24.5454V26.1818H90V24.5454H99Z" fill="white"/>
<path d="M99 33.5454V34.3634H98.7548C90.6292 34.3634 82.5036 34.3634 74.378 34.3634C73.6318 34.3704 72.8914 34.1565 72.196 33.7331C72.1226 33.6947 72.0556 33.6311 72 33.5468L99 33.5454Z" fill="white"/>
<path d="M19.6364 29.4546H11.4732C11.4683 29.3785 11.4596 29.3039 11.4596 29.2292C11.4596 28.848 11.4679 28.4668 11.4551 28.0861C11.4489 27.886 11.4963 27.8062 11.6845 27.8197C11.9378 27.837 12.1928 27.8239 12.4474 27.8239H19.3583C19.6364 27.8239 19.6364 27.8239 19.6364 28.1398V29.4546Z" fill="white"/>
<path d="M59.7273 33.6632C59.2887 33.8478 58.8549 34.0723 58.4114 34.2052C58.045 34.3091 57.6732 34.3592 57.3009 34.3547C51.5186 34.3634 45.7363 34.3657 39.954 34.3616C39.222 34.3656 38.4962 34.152 37.8149 33.7321C37.7464 33.6942 37.685 33.6301 37.6364 33.5454H59.7049C59.711 33.5847 59.7189 33.6239 59.7273 33.6632Z" fill="white"/>
<path d="M19.6355 30.2727C19.6355 30.7792 19.6396 31.2524 19.6301 31.725C19.6301 31.7844 19.5584 31.8556 19.5101 31.896C19.4792 31.9215 19.4297 31.9013 19.3884 31.9013C16.8313 31.9013 14.2743 31.8972 11.7172 31.9091C11.5035 31.9091 11.4437 31.8248 11.4561 31.5279C11.473 31.1158 11.4602 30.702 11.4602 30.2727H19.6355Z" fill="white"/>
<path d="M19.6364 33.5454V34.3636H11.4546V33.5454H19.6364Z" fill="white"/>
<path d="M64.0061 46.7386C63.9433 46.8086 63.8765 46.8758 63.8182 46.949C62.885 48.1153 61.9618 49.2924 61.0166 50.4507C60.6438 50.9069 60.2135 51.316 59.8282 51.7628C59.489 52.1558 59.0705 52.2985 58.5689 52.2469C57.9122 52.1796 57.3258 51.9521 56.8261 51.5094C56.4892 51.2106 56.3985 50.8544 56.4856 50.4188C56.7301 49.1942 57.1863 48.0458 57.7291 46.9297C58.7874 44.7526 60.0965 42.7434 61.8034 41.0123C62.066 40.7466 62.3491 40.502 62.65 40.2806C63.3678 39.7495 64.1371 39.7078 64.9209 40.1317C65.2555 40.3111 65.5691 40.5318 65.8988 40.7216C66.3178 40.9625 66.2075 40.9706 66.522 40.6135C66.9172 40.1649 67.3115 39.714 67.6803 39.2439C68.0163 38.8164 68.434 38.7473 68.9211 38.8788C69.3149 38.9818 69.6651 39.209 69.9198 39.5265C70.201 39.8719 70.2158 40.1281 69.9754 40.5058C69.0638 41.9364 68.1975 43.393 67.4631 44.9227C67.0293 45.8234 66.6014 46.7283 66.3914 47.7147C66.3586 47.8906 66.3474 48.0699 66.3582 48.2485C66.3681 48.4957 66.4968 48.5836 66.7135 48.4585C66.9934 48.3037 67.2538 48.116 67.4892 47.8995C68.4541 46.9736 69.2388 45.8943 69.9947 44.8011C70.7649 43.6899 71.4913 42.5483 72.2561 41.4331C72.5277 41.0479 72.824 40.6808 73.1431 40.334C73.3674 40.0859 73.6881 40.0222 74.0071 40.0375C74.4795 40.0599 74.9366 40.1581 75.3579 40.3937C75.7683 40.6233 75.8567 40.8871 75.6221 41.2877C74.444 43.3077 73.3674 45.3798 72.6271 47.608C72.4437 48.1588 72.2902 48.72 72.1251 49.2772C72.1112 49.322 72.1157 49.3759 72.1059 49.4983C72.2674 49.3584 72.4019 49.274 72.493 49.1574C73.0188 48.4782 73.5612 47.8116 74.0479 47.1033C75.8884 44.4321 77.5918 41.6753 79.1581 38.833C79.5452 38.1345 79.9301 37.9807 80.6663 38.1682C81.0023 38.2534 81.3276 38.4373 81.6178 38.6374C81.9803 38.8855 82.0108 39.1587 81.8035 39.5516C80.7475 41.5542 79.8054 43.6087 79.0347 45.7373C78.7678 46.4748 78.5695 47.232 78.4869 48.0148C78.4735 48.1467 78.4869 48.2813 78.4869 48.4607C78.609 48.402 78.7283 48.371 78.809 48.3006C79.1581 47.9866 79.5237 47.6856 79.8332 47.3352C80.8067 46.2321 81.5756 44.9792 82.3203 43.72C83.4073 41.8807 84.4248 40.0043 85.4853 38.1507C86.1937 36.9126 86.9245 35.6875 87.6449 34.4561C87.693 34.3744 87.7374 34.2905 87.8136 34.1542C87.4974 34.2111 87.2363 34.2524 86.9779 34.3058C84.785 34.7544 82.6541 35.3927 80.6493 36.4074C79.5382 36.9638 78.5063 37.6658 77.5807 38.4948C77.2968 38.7509 77.0689 38.7724 76.753 38.5508C76.1039 38.0951 75.745 37.4365 75.5481 36.6923C75.4583 36.363 75.5907 36.0903 75.9011 35.8952C77.3497 34.9818 78.9131 34.3166 80.5219 33.7491C82.9769 32.8866 85.502 32.2381 88.0689 31.8107C88.4435 31.7475 88.8194 31.6896 89.1949 31.6313C89.2782 31.6219 89.3584 31.5947 89.4303 31.5517C89.5022 31.5087 89.564 31.4508 89.6117 31.3818C90.3994 30.3303 91.1935 29.2829 92.0086 28.252C92.3747 27.7891 92.795 27.724 93.3545 27.9281C93.8197 28.0981 94.2432 28.3144 94.5339 28.7356C94.8928 29.2578 94.8407 29.8728 94.3993 30.3272C94.1189 30.6143 93.8484 30.9104 93.5227 31.2571C93.6797 31.2675 93.7627 31.271 93.8457 31.2782C94.5366 31.3361 95.2364 31.3455 95.916 31.463C97.5423 31.7439 98.4615 33.1771 98.1057 34.8033C97.9958 35.3066 97.8307 35.7794 97.3678 36.1356C97.374 36.0584 97.3754 36.014 97.3812 35.9701C97.4575 35.3685 97.2112 34.9239 96.7083 34.6108C96.1713 34.278 95.5738 34.121 94.9645 33.9954C93.9067 33.7764 92.8345 33.7217 91.7569 33.7262C91.5892 33.7262 91.5021 33.8159 91.4097 33.9285C89.9553 35.713 88.7221 37.6442 87.6414 39.6705C86.2246 42.3235 84.9685 45.0442 84.113 47.9341C83.8622 48.8072 83.6645 49.6946 83.5208 50.5916C83.4468 51.0312 83.485 51.5031 83.5491 51.949C83.6559 52.6892 84.074 53.0494 84.8196 53.1382C84.9003 53.1481 84.9815 53.1566 85.0627 53.1656L85.1408 53.2504C85.0686 53.2854 84.9829 53.3055 84.9263 53.3576C83.5958 54.5751 81.1732 54.0403 80.6883 51.9391C80.442 50.8755 80.5142 49.8384 80.7991 48.799C80.8261 48.7178 80.8327 48.6312 80.8184 48.5469C80.7686 48.6088 80.717 48.6684 80.6703 48.7321C80.2666 49.2848 79.7803 49.7581 79.2478 50.1869C78.6583 50.6624 78.0446 50.767 77.3636 50.3816C76.8109 50.0676 76.2905 49.7262 76.1488 49.0587C76.0846 48.7581 76.1088 48.4383 76.1012 48.127C76.0985 48.0112 76.1196 47.8955 76.09 47.7681C76.0505 47.8174 76.0075 47.8645 75.9716 47.9166C75.1403 49.117 74.2058 50.2331 73.2166 51.3066C72.8501 51.7045 72.4091 51.9243 71.8874 51.9687C71.1521 52.032 70.4433 51.9189 69.7919 51.5444C69.2536 51.2339 69.0687 50.8127 69.1405 50.1945C69.2397 49.3373 69.4711 48.5141 69.7138 47.6918C69.7253 47.6568 69.7351 47.6211 69.743 47.5851C69.7452 47.573 69.7345 47.5582 69.7201 47.52C69.6614 47.5896 69.6089 47.6474 69.5604 47.7089C68.7695 48.7043 67.9759 49.6989 66.993 50.5171C66.5395 50.8944 66.0662 51.2501 65.4677 51.3752C64.4884 51.5794 63.3633 50.841 63.2807 49.8751C63.2462 49.4714 63.3516 49.0452 63.4561 48.6456C63.6028 48.0839 63.8087 47.538 63.9886 46.9858C64.0124 46.9126 64.0335 46.8382 64.0573 46.7646L64.0061 46.7386ZM59.6182 48.9815L59.6855 49.0264C59.7752 48.9492 59.865 48.8779 59.948 48.7949C61.6312 47.0629 63.1237 45.1788 64.5494 43.236C64.8069 42.8847 64.7795 42.4549 64.6005 42.0579C64.5023 41.839 64.2991 41.783 64.0976 41.909C63.9722 41.99 63.8568 42.0855 63.7536 42.1934C62.0524 43.9228 60.8582 45.9827 59.8883 48.1844C59.7744 48.4401 59.7071 48.7151 59.6182 48.9811V48.9815Z" fill="url(#paint0_linear)"/>
<path d="M96.2517 45.6224C95.8701 45.5675 95.4898 45.523 95.1146 45.4547C94.955 45.4257 94.8786 45.4577 94.7936 45.5951C94.2962 46.3985 93.8075 47.2088 93.2695 47.9876C92.9078 48.5097 92.4457 48.9565 91.9303 49.3532C91.3498 49.8005 90.7005 49.9738 89.9708 49.8878C89.0964 49.785 88.2939 49.5101 87.5894 48.9876C87.0189 48.5641 86.7571 48.0101 86.7304 47.3294C86.6951 46.4322 86.961 45.596 87.273 44.7693C87.7549 43.4866 88.4155 42.2956 89.3428 41.2541C89.5896 40.977 89.8853 40.7355 90.1833 40.5064C90.3795 40.3539 90.45 40.2039 90.4234 39.9563C90.3646 39.4187 90.3781 38.8789 90.5341 38.3516C90.7638 37.5859 91.2688 37.1053 92.0958 36.9346C93.3802 36.6697 94.5598 36.8343 95.592 37.6654C96.2137 38.1662 96.4294 38.8348 96.4723 39.5807C96.5428 40.7938 96.2241 41.946 95.8737 43.0929C95.7955 43.3479 95.7281 43.6068 95.6291 43.8544C95.55 44.0532 95.6291 44.1249 95.8154 44.1725C96.3878 44.3177 96.9606 44.3086 97.5334 44.1945C97.5701 44.1872 97.6062 44.1772 97.6429 44.169C98.0457 44.0774 98.2008 44.1802 98.18 44.5761C98.1679 44.7826 98.1108 44.9844 98.0122 45.1686C97.9738 45.2315 97.9227 45.2864 97.862 45.3303C97.8012 45.3742 97.732 45.4062 97.6582 45.4244C97.1966 45.5104 96.7255 45.5584 96.2517 45.6224ZM89.2962 48.3675L89.3758 48.3873C89.8956 48.0839 90.3675 47.7113 90.7774 47.2806C91.5496 46.4655 92.0537 45.4888 92.5687 44.5195C92.6365 44.3898 92.5447 44.3548 92.4665 44.3034C91.9597 43.961 91.5449 43.5087 91.2562 42.9836C91.201 42.8837 91.1481 42.7826 91.0699 42.6378C90.9659 42.7964 90.8701 42.9144 90.8045 43.0462C90.1064 44.4464 89.5449 45.8912 89.3025 47.4323C89.2551 47.7356 89.2962 48.0546 89.2962 48.3675ZM93.5566 38.5893C92.7007 39.3607 92.7351 41.3746 93.2509 42.5743C93.7786 41.9576 93.9856 39.4407 93.5566 38.5893Z" fill="url(#paint1_linear)"/>
<defs>
<linearGradient id="paint0_linear" x1="56.4545" y1="40.9092" x2="98.1818" y2="40.9092" gradientUnits="userSpaceOnUse">
<stop stop-color="#D6D4FF"/>
<stop offset="0.484375" stop-color="#EFC7ED"/>
<stop offset="1" stop-color="#FFD4D9"/>
</linearGradient>
<linearGradient id="paint1_linear" x1="86.7273" y1="43.3637" x2="98.1818" y2="43.3637" gradientUnits="userSpaceOnUse">
<stop stop-color="#D6D4FF"/>
<stop offset="0.484375" stop-color="#EFC7ED"/>
<stop offset="1" stop-color="#FFD4D9"/>
</linearGradient>
</defs>
</svg>
