<svg xmlns="http://www.w3.org/2000/svg" viewBox="0 0 2240 1199" width="2240" height="1199">
	<linearGradient id="Gradient_cars_1" x1="0" x2="1" y1="0" y2="0">
        <stop  offset="0.1%" stop-color="#D6D4FF"/>
        <stop  offset="50.52%" stop-color="#EFC7ED"/>
        <stop  offset="99.9%" stop-color="#FFD4D9"/>
      </linearGradient>
	<style>
		tspan { white-space:pre }
		.shp0 { fill: #FFFFFF } 
		.shp1 { fill: url(#Gradient_cars_1); } 
	</style>
	<path id="you" class="shp0" d="M224.4 0.12L351.2 204.46L478 0.12L702.15 0.12L486.97 350.97L214.15 350.97L0.25 0.12L224.4 0.12ZM251.29 410.09L217.99 356.11L484.41 356.11L449.82 412.66L251.29 412.66L251.29 410.09ZM251.29 422.94L449.82 422.94L449.82 474.35L251.29 474.35L251.29 422.94ZM251.29 489.77L449.82 489.77L449.82 536.04L251.29 536.04L251.29 489.77ZM251.29 556.6L449.82 556.6L449.82 597.73L251.29 597.73L251.29 556.6ZM251.29 623.43L449.82 623.43L449.82 659.42L251.29 659.42L251.29 623.43ZM251.29 691.55L449.82 691.55L449.82 719.82L251.29 719.82L251.29 691.55ZM251.29 771.23L251.29 758.38L449.82 758.38L449.82 771.23L251.29 771.23ZM949.36 350.97L750.83 350.97L750.83 128.64C750.83 112.37 755.73 96.51 765.56 81.09C775.36 65.66 787.75 51.97 802.7 39.96C817.63 27.97 834.08 18.33 852.02 11.04C869.95 3.78 887.44 0.12 904.53 0.12L1301.59 0.12C1317.8 0.12 1335.09 3.78 1353.47 11.04C1371.82 18.33 1388.47 27.97 1403.42 39.96C1418.35 51.97 1430.74 65.66 1440.56 81.09C1450.37 96.51 1455.29 112.37 1455.29 128.64L1455.29 350.97L1256.76 350.97L1256.76 209.6C1256.76 192.48 1252.48 180.27 1243.95 172.98C1235.41 165.71 1226.02 161.63 1215.78 160.77L995.47 160.77C983.5 160.77 972.83 164.2 963.45 171.05C954.04 177.92 949.36 190.77 949.36 209.6L949.36 350.97ZM750.83 642.71L750.83 623.43L1455.29 623.43L1455.29 642.71C1455.29 647.01 1454.43 652.57 1452.73 659.42L752.11 659.42C751.25 656 750.83 650.42 750.83 642.71L750.83 642.71ZM766.2 691.55L1439.92 691.55C1432.24 703.55 1424.55 712.97 1416.87 719.82L789.25 719.82C781.57 712.97 773.88 703.55 766.2 691.55L766.2 691.55ZM1256.76 356.11L1455.29 356.11L1455.29 412.66L1256.76 412.66L1256.76 356.11ZM750.83 356.11L949.36 356.11L949.36 412.66L750.83 412.66L750.83 356.11ZM1256.76 422.94L1455.29 422.94L1455.29 474.35L1256.76 474.35L1256.76 422.94ZM750.83 422.94L949.36 422.94L949.36 474.35L750.83 474.35L750.83 422.94ZM1256.76 489.77L1455.29 489.77L1455.29 536.04L1256.76 536.04L1256.76 489.77ZM750.83 489.77L949.36 489.77L949.36 536.04L750.83 536.04L750.83 489.77ZM1256.76 561.74L1256.76 556.6L1455.29 556.6L1455.29 597.73L1245.23 597.73C1252.92 588.31 1256.76 576.32 1256.76 561.74L1256.76 561.74ZM960.89 597.73L750.83 597.73L750.83 556.6L949.36 556.6L949.36 561.74C949.36 578.03 953.2 590.02 960.89 597.73L960.89 597.73ZM846.89 758.38L1359.23 758.38C1349.82 762.67 1340.22 765.89 1330.41 768.01C1320.58 770.16 1310.98 771.23 1301.59 771.23L904.53 771.23C884.04 771.23 864.82 766.95 846.89 758.38L846.89 758.38ZM1733.24 0.12L1733.24 350.97L1534.71 350.97L1534.71 0.12L1733.24 0.12ZM2239.17 350.97L2040.64 350.97L2040.64 0.12L2239.17 0.12L2239.17 350.97ZM1534.71 642.71L1534.71 623.43L2239.17 623.43L2239.17 659.42L1535.99 659.42C1535.13 656 1534.71 650.42 1534.71 642.71L1534.71 642.71ZM1550.08 691.55L2239.17 691.55L2239.17 719.82L1573.13 719.82C1565.45 712.97 1557.76 703.55 1550.08 691.55L1550.08 691.55ZM2040.64 356.11L2239.17 356.11L2239.17 412.66L2040.64 412.66L2040.64 356.11ZM1534.71 356.11L1733.24 356.11L1733.24 412.66L1534.71 412.66L1534.71 356.11ZM2040.64 422.94L2239.17 422.94L2239.17 474.35L2040.64 474.35L2040.64 422.94ZM1534.71 422.94L1733.24 422.94L1733.24 474.35L1534.71 474.35L1534.71 422.94ZM2040.64 489.77L2239.17 489.77L2239.17 536.04L2040.64 536.04L2040.64 489.77ZM1534.71 489.77L1733.24 489.77L1733.24 536.04L1534.71 536.04L1534.71 489.77ZM1744.76 597.73L1534.71 597.73L1534.71 556.6L1733.24 556.6L1733.24 561.74C1733.24 578.03 1737.08 590.02 1744.76 597.73L1744.76 597.73ZM2040.64 556.6L2239.17 556.6L2239.17 597.73L2040.64 597.73L2040.64 556.6ZM1630.77 758.38L2239.17 758.38L2239.17 771.23L1688.41 771.23C1667.91 771.23 1648.7 766.95 1630.77 758.38L1630.77 758.38Z" />
	<path id="auto" class="shp1" d="M1574.78 1032.23C1553.04 1059.38 1537.47 1073.63 1528.04 1074.97C1524.76 1075.27 1523.38 1071.61 1523.91 1063.97C1524.44 1056.34 1527.67 1044.89 1533.6 1029.64C1539.53 1014.4 1548.36 995.55 1560.1 973.13C1571.85 950.7 1587.07 924.87 1605.77 895.63C1609.57 890.07 1609.77 884.48 1606.39 878.86C1603 873.25 1598.24 868.59 1592.12 864.89C1585.98 861.19 1579.33 859.2 1572.16 858.91C1564.99 858.63 1559.55 860.79 1555.84 865.4C1549.6 872.15 1543.7 878.97 1538.14 885.89C1532.57 892.81 1526.93 899.37 1521.21 905.59C1513.72 901.55 1506.7 897.33 1500.17 892.96C1493.64 888.58 1486.99 885.41 1480.23 883.42C1473.46 881.45 1466.28 881.28 1458.68 882.93C1451.09 884.58 1442.49 889.4 1432.87 897.41C1419.63 909.07 1405.98 923.85 1391.9 941.74C1377.82 959.65 1364.77 978.75 1352.77 999.07C1340.77 1019.38 1330.23 1040.17 1321.14 1061.39C1312.08 1082.62 1305.93 1102.4 1302.72 1120.71C1301.06 1127.98 1303.09 1134.55 1308.76 1140.43C1314.45 1146.3 1321.31 1150.89 1329.33 1154.17C1337.38 1157.46 1345.67 1159.18 1354.24 1159.34C1362.81 1159.5 1369.42 1157.22 1374.07 1152.52C1383.83 1143.08 1393.31 1132.96 1402.51 1122.15C1411.71 1111.34 1420.56 1100.56 1429.06 1089.82C1437.55 1079.07 1445.41 1068.99 1452.61 1059.54C1459.82 1050.1 1466.57 1041.78 1472.86 1034.55C1468.48 1045.87 1464.22 1058.35 1460.08 1072.01C1455.93 1085.67 1453.95 1096.29 1454.13 1103.86C1454.02 1109.56 1455.9 1115.2 1459.76 1120.76C1463.62 1126.34 1468.5 1130.87 1474.43 1134.34C1480.36 1137.83 1487.12 1139.82 1494.73 1140.29C1502.34 1140.78 1509.83 1139.02 1517.19 1135.01C1530.93 1127.58 1545.35 1115.69 1560.44 1099.36C1575.53 1083.02 1590.44 1064.93 1605.18 1045.07C1619.92 1025.21 1634 1005.06 1647.42 984.61C1660.82 964.16 1672.77 945.63 1683.24 929.01C1685.44 925.5 1685.65 922.28 1683.85 919.35C1682.05 916.44 1679.48 914.19 1676.17 912.6C1672.84 911.01 1669.2 910.28 1665.24 910.41C1661.28 910.54 1658.5 911.63 1656.91 913.67C1623.88 965.57 1596.51 1005.09 1574.78 1032.23ZM1458.44 990.36C1448.34 1003.15 1438.02 1015.97 1427.46 1028.79C1416.9 1041.63 1406.79 1053.35 1397.15 1063.96C1387.5 1074.58 1379.89 1082.27 1374.31 1087.06C1374.89 1081.31 1377.86 1072.39 1383.25 1060.27C1388.62 1048.16 1395.41 1034.85 1403.58 1020.33C1411.75 1005.83 1421.12 990.97 1431.7 975.76C1442.26 960.56 1453.45 947.19 1465.29 935.66C1471 929.44 1475.47 926.66 1478.65 927.31C1481.83 927.98 1484.04 930.26 1485.27 934.17C1486.51 938.09 1486.89 942.45 1486.42 947.22C1485.94 952.01 1484.91 955.43 1483.31 957.47C1476.82 966.61 1468.54 977.58 1458.44 990.36ZM2231.91 769.41C2235.26 754.41 2233.26 739.41 2225.94 724.44C2218.55 709.95 2204.67 700.09 2184.31 694.86C2176.1 693.25 2167.51 692.15 2158.51 691.56C2149.51 690.97 2140.14 690.66 2130.4 690.6C2137.77 681.86 2144.52 674.6 2150.68 668.81C2158.65 658.59 2159.91 648.28 2154.45 637.87C2148.51 627.52 2139.46 620.53 2127.28 616.91C2116.65 611.74 2107.04 612.63 2098.46 619.58C2080.25 639.29 2060.25 665.33 2038.46 697.69C1979.6 705.98 1921.64 719.17 1864.59 737.25C1808.94 755.2 1765.22 774.66 1733.42 795.62C1728.4 799.41 1726.66 805.26 1728.2 813.18C1729.82 820.14 1733.66 828.32 1739.69 837.72C1744.5 845.34 1750.41 851.2 1757.43 855.28C1763.61 858.51 1769.28 857.51 1774.45 852.29C1801.99 827.45 1835.6 807.04 1875.26 791.03C1915.86 774.95 1957.88 763.24 2001.34 755.89C1984.09 784.52 1968.02 811.86 1953.13 837.89C1938.23 863.93 1924.25 888.93 1911.2 912.9C1904.76 926.3 1893.81 945.34 1878.36 970C1870.65 982.09 1863.08 993.94 1855.67 1005.53C1848.25 1017.13 1840.55 1028.04 1832.57 1038.26C1816.59 1058.71 1803.81 1070.56 1794.2 1073.81C1794.1 1051.54 1802.84 1019.67 1820.43 978.2C1829.55 956.5 1838.23 936.97 1846.45 919.6C1854.68 902.25 1862.48 886.82 1869.87 873.33C1873.33 866.38 1871.19 859.94 1863.42 854.01C1859.12 850.62 1854.73 848.06 1850.25 846.34C1845.77 844.62 1841.01 843.53 1835.96 843.04C1824.95 841.69 1816.92 845.28 1811.91 853.8C1802.22 871.77 1791.96 889.79 1781.11 907.86C1770.26 925.94 1759.03 944.3 1747.43 962.91C1736.33 981.01 1725.74 997.76 1715.62 1013.15C1705.49 1028.56 1695.86 1042.61 1686.7 1055.31C1668.86 1080.68 1657.29 1094.31 1651.99 1096.22C1653.03 1090.43 1655.08 1082.54 1658.17 1072.53C1661.26 1062.53 1665.31 1050.89 1670.36 1037.61C1675.39 1024.35 1680.75 1011.29 1686.44 998.43C1692.13 985.57 1698.09 973.41 1704.35 961.92C1710.6 950.43 1716.11 940.44 1720.91 931.93C1725.7 923.43 1729.51 916.67 1732.32 911.67C1735.61 906.63 1734.05 901.32 1727.64 895.74C1724.13 893.7 1720.26 891.8 1716.02 890.06C1711.78 888.32 1706.9 887.23 1701.37 886.79C1691.34 884.87 1682.84 886.37 1675.86 891.28C1671.77 894.99 1667.05 901.59 1661.7 911.09C1656.34 920.6 1649.92 932.57 1642.46 947.01C1635.34 962.38 1628.35 977.84 1621.47 993.41C1614.57 1008.99 1608.45 1025.09 1603.09 1041.7C1591.28 1076.47 1585.19 1102.65 1584.83 1120.22C1585.15 1131.1 1591.07 1139.32 1602.58 1144.89C1613.16 1150.56 1625.87 1153.41 1640.73 1153.46C1655.16 1153.08 1666.25 1148.96 1673.99 1141.13C1682.29 1132.31 1689.59 1124.28 1695.88 1117.06C1702.17 1109.84 1707.71 1103.16 1712.5 1097.02C1722.54 1084.71 1732.19 1071.73 1741.46 1058.07C1738.14 1077.35 1739.99 1091.4 1747 1100.23C1753.98 1109.55 1764.86 1116.84 1779.66 1122.11C1790.05 1124.95 1800.8 1121.82 1811.93 1112.72C1817.47 1108.42 1823.19 1103.26 1829.13 1097.26C1835.07 1091.26 1841.02 1083.95 1846.99 1075.33C1844.16 1085.09 1842.15 1093.56 1840.98 1100.79C1839.79 1108.01 1839.13 1114.72 1838.98 1120.89C1839.66 1160.66 1852.79 1185.05 1878.37 1194.07C1903 1203.17 1924.88 1197.82 1944.04 1178.03C1911.7 1181.02 1899.82 1157.94 1908.43 1108.77C1913.29 1083.19 1921.17 1055.43 1932.03 1025.5C1942.9 995.57 1956.84 962.74 1973.87 927.02C2008.42 855.07 2045.73 794.94 2085.83 746.65C2126.77 745.71 2159.8 749.77 2184.91 758.83C2209.59 767.46 2219.1 781.51 2213.45 801C2222.83 795.4 2228.98 784.87 2231.91 769.41L2231.91 769.41ZM2197.35 973.21C2187.89 972.66 2181.2 971.14 2177.27 968.66C2182.73 951.08 2187.56 934.04 2191.76 917.53C2195.95 901.02 2197.75 884.02 2197.18 866.52C2196.74 847.6 2190.99 832.95 2179.96 822.59C2168.91 812.23 2156.23 805.58 2141.89 802.64C2127.55 799.7 2113.6 799.92 2100.03 803.31C2086.46 806.7 2077.19 812.43 2072.22 820.47C2066.1 830.53 2062.77 840.67 2062.22 850.91C2061.66 861.17 2061.82 871.22 2062.7 881.1C2060.11 883.72 2057.32 886.11 2054.32 888.28C2051.32 890.46 2048.53 892.85 2045.95 895.45C2038.76 902.29 2030.93 912.14 2022.46 925.01C2013.99 937.89 2006.45 951.87 1999.84 966.94C1993.23 982.02 1988 997.32 1984.13 1012.85C1980.27 1028.39 1979.57 1042.44 1982.03 1055.01C1983.42 1064.38 1988.17 1072.71 1996.26 1080.02C2004.36 1087.34 2013.88 1093.09 2024.84 1097.29C2035.79 1101.5 2046.93 1103.9 2058.24 1104.51C2069.55 1105.13 2079.17 1102.93 2087.11 1097.93C2096.48 1092.33 2105.22 1084.99 2113.31 1075.94C2121.41 1066.9 2128.6 1057.7 2134.87 1048.34C2141.14 1038.99 2146.57 1029.95 2151.15 1021.23C2155.73 1012.51 2159.43 1005.65 2162.24 1000.64C2174.47 1003.78 2185.25 1005.16 2194.57 1004.76C2203.89 1004.38 2214.02 1002.96 2224.94 1000.53C2227.28 1000.31 2229.44 998.46 2231.42 994.95C2233.39 991.46 2234.58 987.67 2234.98 983.6C2235.38 979.53 2234.92 976.02 2233.6 973.05C2232.26 970.1 2229.7 969.03 2225.9 969.85C2216.33 972.64 2206.82 973.75 2197.35 973.21ZM2040.35 1035.75C2043.12 1021.98 2046.93 1008.11 2051.81 994.14C2056.68 980.18 2061.5 967.76 2066.3 956.88C2071.11 946.01 2074.79 939.27 2077.38 936.65C2084.52 953.54 2095.71 966.96 2110.98 976.93C2102.75 994.3 2093.57 1010.79 2083.43 1026.43C2073.28 1042.07 2058.52 1056.24 2039.15 1068.93C2037.18 1060.58 2037.59 1049.52 2040.35 1035.75ZM2117.93 882.39C2118.9 865.71 2123.61 852.24 2132.06 841.96C2133.6 845.14 2134.82 850.36 2135.72 857.63C2136.63 864.9 2136.97 873.16 2136.74 882.43C2136.51 891.7 2135.46 901.04 2133.6 910.46C2131.74 919.88 2129.07 928.07 2125.59 935.03C2119.53 916.63 2116.97 899.09 2117.93 882.39Z" />
</svg>