<svg width="36" height="24" viewBox="0 0 36 24" fill="none" xmlns="http://www.w3.org/2000/svg">
<path d="M21.3564 11.5111L21.0296 10.9569C19.6051 12.1731 17.1511 13.8646 14.2607 15.5689C13.2159 16.1854 12.1999 16.752 11.2455 17.2561C11.4138 17.9393 10.8004 18.1152 10.1637 18.4907L2.84215 22.809C2.06451 23.2673 1.39436 23.5719 0.935695 22.7944L0.160787 21.4804C-0.297683 20.7025 0.292769 20.2638 1.07041 19.8047L8.39238 15.4868C9.02965 15.1113 9.48042 14.6604 9.9962 15.1379C10.8995 14.5469 11.8869 13.9326 12.9317 13.3164C15.822 11.6118 18.49 10.2828 20.2438 9.62489L19.9165 9.07031C19.6412 8.60376 19.7965 8.00256 20.263 7.72702C20.7296 7.4518 21.3308 7.60706 21.6063 8.07367L23.0455 10.514C23.3207 10.9806 23.1658 11.5821 22.6993 11.8573C22.2328 12.1325 21.6316 11.9777 21.3564 11.5111ZM18.4822 5.61944C18.9431 6.40026 19.8564 6.73909 20.6917 6.51533L24.2159 12.4916C23.6162 13.1146 23.4704 14.0778 23.9309 14.859L24.0648 15.0857C24.6182 16.0249 25.8291 16.3369 26.7683 15.7839L30.7373 13.4431C31.6761 12.8893 31.9888 11.6788 31.4347 10.7396L31.3009 10.5133C30.8404 9.73206 29.9267 9.39292 29.0914 9.61662L25.5667 3.64034C26.1671 3.01739 26.3127 2.05414 25.8517 1.27294L25.7183 1.04624C25.1641 0.107105 23.9539 -0.205327 23.0143 0.348044L19.0457 2.6888C18.1065 3.24255 17.7939 4.45316 18.3475 5.3923L18.4822 5.61944ZM34.3653 20.2205H33.6063C33.2521 19.587 32.5753 19.1581 31.7983 19.1581H25.8167C25.0392 19.1581 24.3629 19.587 24.0087 20.2205H23.5764C22.6738 20.2205 21.9417 20.9525 21.9417 21.8552V22.2909C21.9417 23.194 22.6738 23.9256 23.5764 23.9256H34.3653C35.2679 23.9256 35.9999 23.194 35.9999 22.2909V21.8552C36 20.9525 35.268 20.2205 34.3653 20.2205Z" fill="white"/>
</svg>
