<svg width="34" height="33" viewBox="0 0 34 33" fill="none" xmlns="http://www.w3.org/2000/svg">
<g clip-path="url(#clip0)">
<g clip-path="url(#clip1)">
<path d="M31.1766 25.4407C29.6819 25.4407 28.9057 26.2552 28.2832 26.9104C27.7197 27.5023 27.2732 27.9703 26.3564 27.9703C25.4396 27.9703 24.9931 27.5023 24.4283 26.9104C23.8045 26.2552 23.0269 25.4407 21.5336 25.4407C20.0415 25.4407 19.2666 26.2552 18.6427 26.9104C18.0793 27.5023 17.634 27.9703 16.7199 27.9703C15.8071 27.9703 15.3618 27.5023 14.7984 26.9104C14.1758 26.2565 13.4009 25.4407 11.9076 25.4407C10.4142 25.4407 9.63928 26.2565 9.01672 26.9104C8.45457 27.5023 8.00932 27.9703 7.09519 27.9703C6.18106 27.9703 5.73582 27.5023 5.17237 26.9104C4.54981 26.2565 3.77359 25.4407 2.28154 25.4407C1.91916 25.4407 1.62494 25.7239 1.62494 26.073C1.62494 26.4221 1.91916 26.7055 2.28166 26.7055C3.19579 26.7055 3.64104 27.1734 4.20449 27.7654C4.82704 28.4193 5.60326 29.2351 7.09531 29.2351C8.58736 29.2351 9.36223 28.4193 9.98614 27.7654C10.5483 27.1734 10.9948 26.7055 11.9077 26.7055C12.8205 26.7055 13.2658 27.1734 13.8292 27.7654C14.4518 28.4193 15.228 29.2351 16.72 29.2351C18.2121 29.2351 18.9869 28.4205 19.6109 27.7654C20.1743 27.1734 20.6196 26.7055 21.5337 26.7055C22.4491 26.7055 22.8957 27.1734 23.4605 27.7654C24.0843 28.4193 24.8605 29.2351 26.3552 29.2351C27.8499 29.2351 28.6261 28.4205 29.25 27.7654C29.8132 27.1734 30.2598 26.7055 31.1766 26.7055C31.5391 26.7055 31.8333 26.4221 31.8333 26.073C31.8333 25.7239 31.5391 25.4407 31.1766 25.4407Z" fill="white"/>
<path d="M29.1303 15.6597C29.0397 15.4953 28.8794 15.3777 28.6917 15.3372L16.871 12.8075C16.7777 12.7873 16.6792 12.7873 16.586 12.8075L4.76538 15.3372C4.57754 15.3777 4.41734 15.4953 4.32672 15.6597C4.23739 15.8241 4.22692 16.0176 4.29785 16.1897L8.23271 25.6619C8.31151 25.8516 8.47965 25.9933 8.68583 26.0413C8.89072 26.0856 9.10873 26.0401 9.27028 25.9073C9.51851 25.7011 9.7431 25.4697 9.9664 25.2369C10.5364 24.6437 10.9856 24.1757 11.9076 24.1757C12.8296 24.1757 13.2788 24.645 13.8489 25.2369C14.0774 25.4747 14.3086 25.7125 14.5633 25.9225C14.6815 26.0199 14.8326 26.073 14.9876 26.073H16.0724V15.9544C16.0724 15.6053 16.3667 15.322 16.7292 15.322C17.0917 15.322 17.3858 15.6053 17.3858 15.9544V26.073H18.4523C18.6086 26.073 18.7584 26.0199 18.8779 25.9225C19.134 25.7125 19.3638 25.476 19.5923 25.2369C20.1624 24.6437 20.6116 24.1757 21.5336 24.1757C22.4582 24.1757 22.9087 24.645 23.4788 25.2382C23.7046 25.4734 23.9332 25.7087 24.1867 25.9161C24.3483 26.0477 24.5623 26.097 24.7699 26.0489C24.9747 25.9996 25.1429 25.8592 25.2217 25.6695L29.1593 16.1897C29.2314 16.0164 29.2209 15.8229 29.1303 15.6597Z" fill="white"/>
<path d="M10.1621 0.144165C9.79959 0.144165 9.50537 0.427505 9.50537 0.776595V2.67383H14.759V0.144165H10.1621Z" fill="white"/>
<path d="M23.2962 0.144165H16.0724V2.67383H23.9529V0.776595C23.9529 0.427505 23.6587 0.144165 23.2962 0.144165Z" fill="white"/>
<path d="M16.0724 3.93868H12.1322V7.73314H16.0724V3.93868Z" fill="white"/>
<path d="M25.923 3.93868H21.326V7.73314H26.5796V4.57111C26.5796 4.22202 26.2855 3.93868 25.923 3.93868Z" fill="white"/>
<path d="M17.3858 8.99793V11.6224L20.0126 12.184V8.99793H17.3858Z" fill="white"/>
<path d="M12.1322 8.99793V12.4648L16.0724 11.6224V8.99793H12.1322Z" fill="white"/>
<path d="M7.53526 3.93868C7.17276 3.93868 6.87854 4.22202 6.87854 4.57111V7.73314H10.8188V3.93868H7.53526Z" fill="white"/>
<path d="M21.326 8.99793V12.4648L25.7811 13.4185C25.8284 13.4286 25.8757 13.4337 25.923 13.4337C26.0714 13.4337 26.2159 13.3856 26.3341 13.2945C26.489 13.1743 26.5796 12.9935 26.5796 12.8012V8.99793H21.326Z" fill="white"/>
<path d="M6.87854 8.99793V12.8012C6.87854 12.9935 6.96916 13.1743 7.12413 13.2945C7.28044 13.4147 7.48663 13.4589 7.67705 13.4185L10.8187 12.7469V8.99793H6.87854Z" fill="white"/>
<path d="M20.0126 3.93868H17.3858V7.73314H20.0126V3.93868Z" fill="white"/>
</g>
</g>
<defs>
<clipPath id="clip0">
<rect width="33.3334" height="32.1003" fill="white" transform="translate(0.583252 0.144165)"/>
</clipPath>
<clipPath id="clip1">
<rect width="30.2083" height="29.0909" fill="white" transform="translate(1.62494 0.144165)"/>
</clipPath>
</defs>
</svg>
