<svg width="28" height="29" viewBox="0 0 28 29" fill="none" xmlns="http://www.w3.org/2000/svg">
<g clip-path="url(#clip0)">
<path d="M7.57991 8.1297L5.23407 8.31849C4.58132 8.37104 3.99997 8.7274 3.63898 9.29618L0.933581 13.5584C0.6598 13.9898 0.616276 14.5296 0.817077 15.0024C1.01793 15.4753 1.43069 15.8048 1.92119 15.884L4.06909 16.2305C4.57154 13.453 5.77434 10.6823 7.57991 8.1297Z" fill="white"/>
<path d="M12.6802 25.2004L13.0129 27.4378C13.0889 27.9488 13.4053 28.3787 13.8592 28.5879C14.048 28.6749 14.2479 28.7179 14.4468 28.7179C14.7262 28.7179 15.0036 28.6331 15.2455 28.4665L19.3373 25.6485C19.8834 25.2724 20.2255 24.6668 20.2758 23.9869L20.4571 21.5433C18.0065 23.4242 15.3467 24.6771 12.6802 25.2004Z" fill="white"/>
<path d="M11.8724 23.6496C11.947 23.6496 12.022 23.6432 12.0968 23.6302C13.2139 23.4357 14.2906 23.1079 15.3178 22.6789L6.4898 13.4831C6.07794 14.553 5.76328 15.6745 5.57649 16.8383C5.50288 17.297 5.65058 17.7643 5.96625 18.0932L10.8921 23.2243C11.1542 23.4972 11.5079 23.6496 11.8724 23.6496Z" fill="white"/>
<path d="M25.6102 13.0179C27.7705 8.6674 27.8505 4.07 27.7376 1.91386C27.699 1.17508 27.1335 0.586084 26.4242 0.545815C26.0872 0.526644 25.6878 0.512817 25.2376 0.512817C22.923 0.512817 19.2608 0.877994 15.7644 2.76183C12.9857 4.25895 9.34216 7.55545 7.19253 11.8877C7.21791 11.9083 7.24271 11.9302 7.26609 11.9546L16.7852 21.8704C16.8086 21.8947 16.8296 21.9205 16.8494 21.9469C21.0084 19.7077 24.173 15.9123 25.6102 13.0179ZM16.4359 6.47551C17.9823 4.86469 20.4986 4.86453 22.0451 6.47551C22.7942 7.25583 23.2068 8.2934 23.2068 9.39698C23.2068 10.5005 22.7942 11.5381 22.0451 12.3184C21.2719 13.1238 20.256 13.5265 19.2405 13.5266C18.2246 13.5267 17.2092 13.124 16.4359 12.3184C15.6867 11.5381 15.2741 10.5005 15.2741 9.39698C15.2741 8.2934 15.6867 7.25583 16.4359 6.47551Z" fill="white"/>
<path d="M17.5577 11.1498C18.4855 12.1164 19.9954 12.1164 20.9233 11.1498C21.3727 10.6816 21.6203 10.0591 21.6203 9.39694C21.6203 8.73478 21.3727 8.11229 20.9233 7.64409C20.4593 7.16081 19.8499 6.91919 19.2405 6.91919C18.6311 6.91919 18.0216 7.16081 17.5577 7.64409C17.1083 8.11229 16.8607 8.73478 16.8607 9.39694C16.8607 10.0591 17.1082 10.6817 17.5577 11.1498Z" fill="white"/>
<path d="M1.50172 23.7565C1.70474 23.7565 1.90777 23.6758 2.06261 23.5144L4.65253 20.8166C4.96233 20.4939 4.96233 19.9707 4.65253 19.648C4.34278 19.3253 3.84049 19.3253 3.53069 19.648L0.94077 22.3458C0.630972 22.6685 0.630972 23.1917 0.94077 23.5144C1.09567 23.6757 1.29869 23.7565 1.50172 23.7565Z" fill="white"/>
<path d="M7.02605 22.1204C6.7163 21.7977 6.214 21.7977 5.90421 22.1204L0.924855 27.3072C0.615057 27.6299 0.615057 28.1531 0.924855 28.4758C1.07975 28.6371 1.28278 28.7178 1.4858 28.7178C1.68883 28.7178 1.89185 28.6371 2.0467 28.4757L7.02599 23.289C7.33585 22.9663 7.33585 22.4431 7.02605 22.1204Z" fill="white"/>
<path d="M8.27762 24.5927L5.68776 27.2906C5.37796 27.6133 5.37796 28.1364 5.68776 28.4592C5.84266 28.6205 6.04568 28.7012 6.24865 28.7012C6.45162 28.7012 6.6547 28.6206 6.80955 28.4592L9.39947 25.7613C9.70926 25.4386 9.70926 24.9154 9.39947 24.5927C9.08972 24.27 8.58742 24.27 8.27762 24.5927Z" fill="white"/>
</g>
<defs>
<clipPath id="clip0">
<rect width="27.0769" height="28.2051" fill="white" transform="translate(0.692322 0.512817)"/>
</clipPath>
</defs>
</svg>
