<svg width="74" height="28" viewBox="0 0 74 28" fill="none" xmlns="http://www.w3.org/2000/svg">
<path fill-rule="evenodd" clip-rule="evenodd" d="M73.8633 21.0953C74.0957 20.1763 73.959 18.6876 73.9955 17.7318C74.0364 16.5555 73.5399 16.9369 73.0844 16.6199C72.9887 14.9565 73.0844 12.1674 72.8976 10.4581C72.6881 8.46386 72.1232 8.21573 69.9185 8.22033L43.9536 8.27547C43.5959 8.31952 43.2336 8.24707 42.9195 8.0687C42.464 7.75165 42.1725 3.96083 41.6851 1.75526C41.4163 0.578961 41.4254 0 40.1226 0H28.4976C26.7666 0 25.0539 0.836277 23.5825 2.02636L16.9546 7.45298C12.1785 7.85642 7.44151 8.64 2.78781 9.79639C1.52601 10.1226 1.01127 10.7154 1.02038 12.1214L1.04771 16.845C0.846987 16.8631 0.648589 16.9016 0.455525 16.9599C0.0637735 17.0931 0.0455525 17.2264 0 17.6124C0 17.9202 0 18.297 0 18.49C0 19.2436 0.0911049 21.4032 0.633179 21.8121C0.9481 22.0348 1.31944 22.1624 1.70366 22.1797H2.9108C3.82185 22.0005 3.97673 21.7202 4.14072 20.6864C4.42248 18.9346 5.31913 17.3434 6.66712 16.203C8.01512 15.0625 9.72461 14.4489 11.4838 14.474C13.3165 14.4755 15.0842 15.1589 16.4484 16.3934C17.8126 17.6278 18.6773 19.3266 18.8769 21.1642C18.9908 22.2395 19.5602 22.2532 20.3437 22.2624L50.2672 22.3268C50.8958 22.3268 51.0233 21.973 51.0689 21.3756C51.2191 19.507 52.0573 17.7628 53.4185 16.4864C54.7797 15.2099 56.5653 14.4937 58.4238 14.4787C60.2823 14.4637 62.079 15.1511 63.4603 16.4054C64.8416 17.6597 65.7073 19.3902 65.8871 21.2561C65.9782 22.2578 65.9645 22.3635 66.8528 22.3635H69.2671C70.2966 22.3635 73.5855 22.2073 73.8633 21.0907V21.0953ZM36.0548 7.58163C36.3964 4.75575 36.5513 2.71101 36.688 1.92528C36.7472 1.58066 36.811 1.3601 37.2346 1.36469H39.002C39.1432 1.36469 39.2252 1.69093 39.2526 2.19638L39.5259 7.30594C39.5942 8.54198 39.4621 8.40413 38.8289 8.40413H36.9567C35.9865 8.40413 35.9546 8.46386 36.0457 7.58163H36.0548ZM22.7762 8.40413C22.3845 8.40413 22.9767 8.16519 23.004 7.65975C23.0541 6.8005 21.5008 6.74076 20.5396 6.8005L24.5619 3.15212C25.0423 2.69915 25.5993 2.33656 26.2063 2.0815C27.0538 1.64214 27.9872 1.39736 28.9395 1.36469H34.6928C35.0754 1.36469 35.0617 1.52092 35.0116 1.82419C34.8431 2.98211 34.5197 6.06531 34.26 7.50352C34.1325 8.21574 33.9821 8.39034 33.2624 8.39034L22.7762 8.40413ZM11.4838 15.9904C12.655 15.9904 13.7999 16.3407 14.7738 16.9971C15.7476 17.6534 16.5066 18.5863 16.9548 19.6778C17.403 20.7693 17.5203 21.9704 17.2918 23.1291C17.0633 24.2878 16.4993 25.3522 15.6711 26.1876C14.843 27.023 13.7878 27.5919 12.6391 27.8224C11.4903 28.0529 10.2997 27.9346 9.2176 27.4825C8.13552 27.0304 7.21066 26.2647 6.55997 25.2824C5.90927 24.3001 5.56196 23.1452 5.56196 21.9638C5.56196 20.3795 6.18586 18.8602 7.29642 17.7399C8.40698 16.6197 9.91321 15.9904 11.4838 15.9904ZM58.4848 15.9904C59.6561 15.9904 60.801 16.3407 61.7748 16.9971C62.7487 17.6534 63.5077 18.5863 63.9559 19.6778C64.4041 20.7693 64.5214 21.9704 64.2929 23.1291C64.0644 24.2878 63.5004 25.3522 62.6722 26.1876C61.844 27.023 60.7888 27.5919 59.6401 27.8224C58.4914 28.0529 57.3007 27.9346 56.2186 27.4825C55.1366 27.0304 54.2117 26.2647 53.561 25.2824C52.9103 24.3001 52.563 23.1452 52.563 21.9638C52.563 20.3795 53.1869 18.8602 54.2975 17.7399C55.408 16.6197 56.9143 15.9904 58.4848 15.9904Z" fill="white" fill-opacity="0.5"/>
</svg>
