<svg width="74" height="24" viewBox="0 0 74 24" fill="none" xmlns="http://www.w3.org/2000/svg">
    <path fill-rule="evenodd" clip-rule="evenodd" d=" M59.6516 12.8743C60.7463 12.8733 61.8167 13.1993 62.7274 13.811C63.6381 14.4228 64.3482 15.2929 64.7679 16.3112C65.1875 17.3296 65.2979 18.4504 65.085 19.5319C64.872 20.6134 64.3454 21.607 63.5717 22.3871C62.798 23.1671 61.812 23.6984 60.7384 23.9139C59.6648 24.1294 58.5519 24.0193 57.5404 23.5977C56.529 23.176 55.6644 22.4616 55.0561 21.5449C54.4478 20.6282 54.1231 19.5504 54.1231 18.4479C54.1231 16.9706 54.7054 15.5538 55.7421 14.5087C56.7787 13.4636 58.1848 12.8758 59.6516 12.8743ZM54.5119 2.97178L54.1391 7.83186C55.2043 7.77286 56.2695 7.72458 57.2442 7.69239C57.3816 7.69759 57.5179 7.66548 57.6388 7.59942C57.7597 7.53336 57.8607 7.43577 57.9313 7.31689C58.1936 6.86676 58.413 6.39258 58.5864 5.90071C58.6769 5.63785 58.6556 5.51447 58.4266 5.19798C58.123 4.77956 56.0938 3.71206 54.496 2.96105L54.5119 2.97178ZM53.3189 7.88014L53.7929 2.6392C53.4457 2.47712 53.0901 2.33387 52.7277 2.21005C51.4754 1.83426 50.1781 1.63213 48.8717 1.60924L44.6428 1.5556C44.5287 1.55109 44.4153 1.57463 44.3123 1.62416C44.2093 1.67369 44.1198 1.74774 44.0516 1.83991C43.7107 2.72502 43.6308 3.93736 43.1888 7.59047C43.0663 8.58823 43.1302 8.32002 44.254 8.30392C46.9649 8.27174 50.2618 8.06253 53.3402 7.89624L53.3189 7.88014ZM68.2318 20.894C69.3556 20.8082 70.6285 20.7009 71.6352 20.5292C72.2224 20.4801 72.7907 20.2966 73.2969 19.9928C74.1064 19.2311 74.0159 16.86 73.9999 15.6423C73.9999 15.3473 73.2543 15.3473 73.2383 15.0362C73.1264 13.164 72.9986 11.088 72.7962 9.16222C72.5512 6.84483 67.843 6.76436 64.9563 5.8417C62.9058 5.18725 61.2281 3.78716 58.5651 2.6231C55.6677 1.30348 53.1325 0.117961 50.0647 0.117961C45.1115 0.117961 37.7402 -0.477479 33.1226 1.00308C28.7179 2.41389 24.6914 4.97268 20.4998 6.97357C15.1591 7.56997 9.86385 8.52516 4.64955 9.83276C4.02919 9.93884 3.44283 10.1922 2.93899 10.5718C2.43515 10.9515 2.02833 11.4466 1.75219 12.016C1.34694 12.9019 0.991312 13.8098 0.68698 14.7358C0.276875 14.7733 0.266223 14.666 0.154376 14.9074C0.0662319 15.2321 0.0355823 15.5698 0.0638332 15.9052C-0.0259509 16.9102 0.0369082 17.9232 0.250245 18.9092C0.340351 19.4824 0.629031 20.005 1.06513 20.3844C1.36876 20.6306 1.7412 20.775 2.13034 20.7974L4.01043 20.8618C5.13422 20.6526 4.92651 20.5078 4.85194 19.0648C4.85194 18.8502 4.85194 18.6356 4.85194 18.4103C4.92351 16.5379 5.71236 14.7662 7.05295 13.4669C8.39354 12.1677 10.1817 11.4419 12.0421 11.4419C13.9025 11.4419 15.6907 12.1677 17.0312 13.4669C18.3718 14.7662 19.1607 16.5379 19.2323 18.4103C19.2323 18.818 19.2323 19.2203 19.195 19.6066C19.0245 22.0312 18.8008 21.6182 20.9845 21.7523L51.1672 21.7201C52.765 21.4948 52.6851 21.7201 52.5147 19.6656C52.4827 19.2686 52.4721 18.8556 52.4721 18.4371C52.5436 16.5647 53.3325 14.793 54.6731 13.4937C56.0137 12.1945 57.8018 11.4687 59.6622 11.4687C61.5227 11.4687 63.3108 12.1945 64.6514 13.4937C65.992 14.793 66.7808 16.5647 66.8524 18.4371C66.8524 18.7805 66.8524 19.1238 66.8151 19.4617C66.6873 21.1247 67.1506 20.9906 68.2265 20.9047L68.2318 20.894ZM28.2865 8.86182C28.4185 8.45236 28.506 8.02968 28.5475 7.6012C28.6061 6.63562 26.8485 6.56052 25.762 6.63562C28.231 4.84682 30.9385 3.41831 33.8043 2.39244C35.5982 1.92641 37.4383 1.66372 39.2901 1.60924L41.6762 1.5556C42.1023 1.5556 42.1609 1.75408 42.033 2.09203C41.6123 3.23464 41.4418 5.71295 41.1862 7.3759C41.0637 8.18054 40.8719 8.3683 40.0571 8.37903C36.8614 8.40585 28.2173 9.02811 28.2546 8.87254L28.2865 8.86182ZM12.0261 12.8743C13.1215 12.8743 14.1922 13.2018 15.1027 13.8152C16.0132 14.4285 16.7224 15.3003 17.1406 16.32C17.5589 17.3396 17.6672 18.4614 17.4519 19.5431C17.2367 20.6249 16.7075 21.6179 15.9315 22.3965C15.1554 23.1752 14.1674 23.7043 13.0926 23.9169C12.0177 24.1295 10.9044 24.0161 9.89364 23.591C8.88286 23.1658 8.02008 22.4481 7.4146 21.5287C6.80911 20.6093 6.48815 19.5297 6.49236 18.4264C6.498 16.9519 7.08351 15.5398 8.12068 14.4992C9.15785 13.4586 10.5622 12.8743 12.0261 12.8743Z" fill="white" fill-opacity="0.5"/>
</svg>

