<svg width="74" height="28" viewBox="0 0 74 28" fill="none" xmlns="http://www.w3.org/2000/svg">
<path fill-rule="evenodd" clip-rule="evenodd" d="M73.6109 21.2587C73.9784 20.0644 74.0108 17.7083 74 16.2979C74 15.6873 73.8757 15.2874 73.2759 15.1631C72.9084 15.0821 72.5409 15.0064 72.5301 14.8497C72.4221 12.9746 72.287 11.6074 72.087 9.66204C71.9627 8.4678 69.8715 7.41945 68.6124 6.28465C67.4992 5.27413 65.1863 3.58274 64.2137 2.76136C63.3923 2.08588 64.6189 1.32934 63.8516 1.01052C62.6303 0.470133 60.3391 0.22696 57.8696 0.151307C51.8173 -0.037827 43.6143 -0.113481 37.6971 0.318826C35.7301 0.423638 33.7804 0.742546 31.8826 1.2699C27.4352 2.70191 23.6201 6.18198 19.3943 8.17599C14.2823 8.71637 9.12705 9.1865 3.95018 10.4726C3.37985 10.5587 2.84282 10.7954 2.39447 11.1583C1.94612 11.5211 1.60268 11.997 1.39958 12.5369C0.859193 13.6176 1.05913 14.6444 0.799751 15.2388C0.38906 15.2712 0.372849 15.1685 0.259369 15.4063C0.161613 15.7373 0.126788 16.0838 0.156696 16.4276C0.0161965 18.319 -0.383687 21.1344 1.16721 22.307C1.24718 22.3556 1.33021 22.3989 1.41579 22.4367H3.78266C4.9661 22.4367 4.89045 22.2097 5.02014 20.9614C5.20839 19.181 6.04909 17.5332 7.38017 16.3359C8.71125 15.1385 10.4385 14.4763 12.2288 14.4769C13.9587 14.4982 15.6258 15.1277 16.9379 16.2551C18.25 17.3825 19.1235 18.9358 19.4051 20.6426C19.6483 22.1935 19.2754 22.4691 20.8588 22.4691H51.8767C52.9575 22.4691 52.9142 22.361 52.9575 21.2478C53.0842 19.4253 53.8941 17.7177 55.2253 16.4665C56.5565 15.2153 58.3109 14.5126 60.1378 14.4989C61.9646 14.4853 63.7294 15.1617 65.0791 16.3929C66.4289 17.6241 67.2642 19.3193 67.4181 21.1398C67.5424 22.4637 67.4181 22.4691 68.6394 22.4691H71.6547C72.595 22.4691 73.2759 22.2584 73.5677 21.2587H73.6109ZM60.2364 16.152C61.3396 16.152 62.4181 16.4792 63.3353 17.0923C64.2525 17.7053 64.9673 18.5766 65.3892 19.5959C65.8111 20.6152 65.9212 21.7368 65.7056 22.8187C65.49 23.9007 64.9583 24.8944 64.1779 25.6741C63.3974 26.4538 62.4032 26.9845 61.3211 27.199C60.2389 27.4136 59.1175 27.3024 58.0986 26.8795C57.0796 26.4566 56.209 25.7409 55.5969 24.8231C54.9848 23.9053 54.6586 22.8266 54.6597 21.7234C54.6611 20.2453 55.2493 18.8282 56.295 17.7835C57.3407 16.7388 58.7583 16.152 60.2364 16.152ZM12.2397 16.152C13.3429 16.152 14.4213 16.4792 15.3385 17.0923C16.2557 17.7053 16.9705 18.5766 17.3924 19.5959C17.8143 20.6152 17.9245 21.7368 17.7088 22.8187C17.4932 23.9007 16.9616 24.8944 16.1811 25.6741C15.4006 26.4538 14.4064 26.9845 13.3243 27.199C12.2422 27.4136 11.1207 27.3024 10.1018 26.8795C9.08285 26.4566 8.21226 25.7409 7.60013 24.8231C6.988 23.9053 6.66183 22.8266 6.6629 21.7234C6.66433 20.2453 7.25252 18.8282 8.2982 17.7835C9.34389 16.7388 10.7615 16.152 12.2397 16.152ZM27.2137 9.38104C27.3453 8.96639 27.4322 8.53886 27.473 8.10574C27.5325 7.13845 25.7654 7.0682 24.6685 7.13845C26.7922 5.57134 29.721 3.64218 32.531 2.66409C33.5253 2.32905 36.465 2.1237 38.3347 2.1237L40.734 2.07507C41.1663 2.07507 41.2258 2.26961 41.0961 2.61545C40.6692 3.76106 40.5017 6.24142 40.2423 7.9058C40.118 8.71097 39.9289 8.9001 39.1075 8.90551C35.8652 8.90551 27.1704 9.55397 27.2191 9.40266L27.2137 9.38104ZM53.152 8.39755C53.0914 6.61561 52.7803 4.85108 52.228 3.15583C49.191 1.82649 46.916 2.07507 43.7169 2.07507C43.603 2.07016 43.4896 2.09263 43.3862 2.14058C43.2828 2.18853 43.1924 2.26057 43.1225 2.35066C42.7875 3.2423 42.6902 4.43654 42.2579 8.10574C42.139 9.10545 42.2039 8.82985 43.3387 8.81905C46.073 8.78662 50.088 8.57587 53.1844 8.40835L53.152 8.39755ZM53.6654 3.49087C54.1652 5.07384 54.5037 6.70327 54.6759 8.35432C55.7567 8.30028 55.4378 8.24624 56.4213 8.21382C57.8425 8.16518 57.7939 7.59778 56.8969 6.37111C56.5889 5.94961 55.2757 4.242 53.6546 3.49628L53.6654 3.49087ZM60.7606 2.8208L62.6195 2.94509C64.4514 4.44735 66.2833 5.77669 68.1098 7.22492C69.0825 7.99766 68.1422 7.92201 67.3641 7.7653C64.5001 7.22492 62.5006 5.00935 60.7606 2.80999V2.8208Z" fill="url(#paint0_linear)"/>
    <defs>
        <linearGradient id="paint0_linear" x1="0.0241695" y1="12.0105" x2="74.0109" y2="12.0105" gradientUnits="userSpaceOnUse">
            <stop stop-color="#D6D4FF"/>
            <stop offset="0.484375" stop-color="#EFC7ED"/>
            <stop offset="1" stop-color="#FFD4D9"/>
        </linearGradient>
    </defs>
</svg>
